<mxfile host="app.diagrams.net" modified="2022-07-22T09:07:18.975Z" agent="5.0 (Windows NT 10.0; Win64; x64) AppleWebKit/537.36 (KHTML, like Gecko) Chrome/103.0.0.0 Safari/537.36" etag="SWZL0j4R-PTqKQnMZ3Df" version="20.1.4" type="github">
  <diagram name="Page-1" id="42789a77-a242-8287-6e28-9cd8cfd52e62">
    <mxGraphModel dx="1422" dy="706" grid="1" gridSize="10" guides="1" tooltips="1" connect="1" arrows="1" fold="1" page="1" pageScale="1" pageWidth="1100" pageHeight="850" background="none" math="0" shadow="0">
      <root>
        <mxCell id="0" />
        <mxCell id="1" parent="0" />
        <mxCell id="1ea317790d2ca983-12" style="edgeStyle=none;rounded=1;html=1;labelBackgroundColor=none;startArrow=none;startFill=0;startSize=5;endArrow=classicThin;endFill=1;endSize=5;jettySize=auto;orthogonalLoop=1;strokeColor=#B3B3B3;strokeWidth=1;fontFamily=Verdana;fontSize=12" parent="1" source="1ea317790d2ca983-1" target="1ea317790d2ca983-2" edge="1">
          <mxGeometry relative="1" as="geometry" />
        </mxCell>
        <mxCell id="1ea317790d2ca983-13" value="" style="edgeStyle=none;rounded=1;html=1;labelBackgroundColor=none;startArrow=none;startFill=0;startSize=5;endArrow=classicThin;endFill=1;endSize=5;jettySize=auto;orthogonalLoop=1;strokeColor=#B3B3B3;strokeWidth=1;fontFamily=Verdana;fontSize=12" parent="1" source="1ea317790d2ca983-1" target="1ea317790d2ca983-9" edge="1">
          <mxGeometry relative="1" as="geometry" />
        </mxCell>
        <mxCell id="1ea317790d2ca983-14" value="" style="edgeStyle=none;rounded=1;html=1;labelBackgroundColor=none;startArrow=none;startFill=0;startSize=5;endArrow=classicThin;endFill=1;endSize=5;jettySize=auto;orthogonalLoop=1;strokeColor=#B3B3B3;strokeWidth=1;fontFamily=Verdana;fontSize=12" parent="1" source="1ea317790d2ca983-1" target="1ea317790d2ca983-3" edge="1">
          <mxGeometry relative="1" as="geometry" />
        </mxCell>
        <mxCell id="1ea317790d2ca983-1" value="&lt;span style=&quot;font-family: Verdana;&quot; lang=&quot;EN-US&quot;&gt;I&lt;/span&gt;&lt;span style=&quot;font-family: Verdana;&quot;&gt;类&lt;/span&gt;" style="ellipse;whiteSpace=wrap;html=1;rounded=0;shadow=1;comic=0;labelBackgroundColor=none;strokeWidth=1;fontFamily=Helvetica;fontSize=12;align=center;fillColor=#4D4D4D;strokeColor=#000000;fontColor=#FFFFFF;" parent="1" vertex="1">
          <mxGeometry x="465" y="120" width="60" height="60" as="geometry" />
        </mxCell>
        <mxCell id="1ea317790d2ca983-21" value="" style="edgeStyle=none;rounded=1;html=1;labelBackgroundColor=none;startArrow=none;startFill=0;startSize=5;endArrow=classicThin;endFill=1;endSize=5;jettySize=auto;orthogonalLoop=1;strokeColor=#B3B3B3;strokeWidth=1;fontFamily=Verdana;fontSize=12" parent="1" source="1ea317790d2ca983-2" target="1ea317790d2ca983-7" edge="1">
          <mxGeometry relative="1" as="geometry" />
        </mxCell>
        <mxCell id="1ea317790d2ca983-2" value="&lt;span style=&quot;font-size:10.5pt;mso-bidi-font-size:11.0pt;font-family:宋体;mso-bidi-font-family:&lt;br/&gt;&amp;quot;Times New Roman&amp;quot;;mso-bidi-theme-font:minor-bidi;mso-ansi-language:EN-US;&lt;br/&gt;mso-fareast-language:ZH-CN;mso-bidi-language:AR-SA&quot; lang=&quot;EN-US&quot;&gt;II&lt;/span&gt;&lt;span style=&quot;font-size:10.5pt;mso-bidi-font-size:11.0pt;font-family:宋体;mso-bidi-font-family:&lt;br/&gt;&amp;quot;Times New Roman&amp;quot;;mso-bidi-theme-font:minor-bidi;mso-ansi-language:EN-US;&lt;br/&gt;mso-fareast-language:ZH-CN;mso-bidi-language:AR-SA&quot;&gt;类&lt;/span&gt;" style="ellipse;whiteSpace=wrap;html=1;rounded=0;shadow=1;comic=0;labelBackgroundColor=none;strokeWidth=1;fontFamily=Verdana;fontSize=12;align=center;fillColor=#CCCCCC;strokeColor=#6c8ebf;" parent="1" vertex="1">
          <mxGeometry x="465" y="240" width="60" height="60" as="geometry" />
        </mxCell>
        <mxCell id="1ea317790d2ca983-15" value="" style="edgeStyle=none;rounded=1;html=1;labelBackgroundColor=none;startArrow=none;startFill=0;startSize=5;endArrow=classicThin;endFill=1;endSize=5;jettySize=auto;orthogonalLoop=1;strokeColor=#B3B3B3;strokeWidth=1;fontFamily=Verdana;fontSize=12;entryX=0.5;entryY=0;entryDx=0;entryDy=0;" parent="1" source="1ea317790d2ca983-3" target="1ea317790d2ca983-5" edge="1">
          <mxGeometry relative="1" as="geometry">
            <mxPoint x="737.5" y="320" as="targetPoint" />
          </mxGeometry>
        </mxCell>
        <mxCell id="1ea317790d2ca983-3" value="&lt;span lang=&quot;EN-US&quot;&gt;I&lt;/span&gt;类" style="ellipse;whiteSpace=wrap;html=1;rounded=0;shadow=1;comic=0;labelBackgroundColor=none;strokeWidth=1;fontFamily=Helvetica;fontSize=12;align=center;fillColor=#4D4D4D;strokeColor=#000000;fontColor=#FFFFFF;" parent="1" vertex="1">
          <mxGeometry x="670" y="230" width="60" height="60" as="geometry" />
        </mxCell>
        <mxCell id="1ea317790d2ca983-17" value="" style="edgeStyle=none;rounded=1;html=1;labelBackgroundColor=none;startArrow=none;startFill=0;startSize=5;endArrow=classicThin;endFill=1;endSize=5;jettySize=auto;orthogonalLoop=1;strokeColor=#B3B3B3;strokeWidth=1;fontFamily=Verdana;fontSize=12" parent="1" source="1ea317790d2ca983-5" target="1ea317790d2ca983-8" edge="1">
          <mxGeometry relative="1" as="geometry" />
        </mxCell>
        <mxCell id="1ea317790d2ca983-5" value="&lt;span lang=&quot;EN-US&quot;&gt;I&lt;/span&gt;类" style="ellipse;whiteSpace=wrap;html=1;rounded=0;shadow=1;comic=0;labelBackgroundColor=none;strokeWidth=1;fontFamily=Helvetica;fontSize=12;align=center;fillColor=#4D4D4D;strokeColor=#000000;fontColor=#FFFFFF;" parent="1" vertex="1">
          <mxGeometry x="670" y="425" width="60" height="60" as="geometry" />
        </mxCell>
        <mxCell id="1ea317790d2ca983-6" value="&lt;span style=&quot;font-size:10.5pt;mso-bidi-font-size:11.0pt;font-family:宋体;mso-bidi-font-family:&lt;br/&gt;&amp;quot;Times New Roman&amp;quot;;mso-bidi-theme-font:minor-bidi;mso-ansi-language:EN-US;&lt;br/&gt;mso-fareast-language:ZH-CN;mso-bidi-language:AR-SA&quot; lang=&quot;EN-US&quot;&gt;II&lt;/span&gt;&lt;span style=&quot;font-size:10.5pt;mso-bidi-font-size:11.0pt;font-family:宋体;mso-bidi-font-family:&lt;br/&gt;&amp;quot;Times New Roman&amp;quot;;mso-bidi-theme-font:minor-bidi;mso-ansi-language:EN-US;&lt;br/&gt;mso-fareast-language:ZH-CN;mso-bidi-language:AR-SA&quot;&gt;类&lt;/span&gt;" style="ellipse;whiteSpace=wrap;html=1;rounded=0;shadow=1;comic=0;labelBackgroundColor=none;strokeWidth=1;fontFamily=Verdana;fontSize=12;align=center;fillColor=#CCCCCC;strokeColor=#6c8ebf;" parent="1" vertex="1">
          <mxGeometry x="570" y="330" width="60" height="60" as="geometry" />
        </mxCell>
        <mxCell id="1ea317790d2ca983-7" value="&lt;span style=&quot;font-size:10.5pt;mso-bidi-font-size:11.0pt;font-family:宋体;mso-bidi-font-family:&lt;br/&gt;&amp;quot;Times New Roman&amp;quot;;mso-bidi-theme-font:minor-bidi;mso-ansi-language:EN-US;&lt;br/&gt;mso-fareast-language:ZH-CN;mso-bidi-language:AR-SA&quot; lang=&quot;EN-US&quot;&gt;III&lt;/span&gt;&lt;span style=&quot;font-size:10.5pt;mso-bidi-font-size:11.0pt;font-family:宋体;mso-bidi-font-family:&lt;br/&gt;&amp;quot;Times New Roman&amp;quot;;mso-bidi-theme-font:minor-bidi;mso-ansi-language:EN-US;&lt;br/&gt;mso-fareast-language:ZH-CN;mso-bidi-language:AR-SA&quot;&gt;类&lt;/span&gt;" style="ellipse;whiteSpace=wrap;html=1;rounded=0;shadow=1;comic=0;labelBackgroundColor=none;strokeWidth=1;fontFamily=Verdana;fontSize=12;align=center;fillColor=#FFFFFF;fontColor=#000000;strokeColor=#2D7600;" parent="1" vertex="1">
          <mxGeometry x="465" y="330" width="60" height="60" as="geometry" />
        </mxCell>
        <mxCell id="1ea317790d2ca983-8" value="&lt;span lang=&quot;EN-US&quot;&gt;I&lt;/span&gt;类" style="ellipse;whiteSpace=wrap;html=1;rounded=0;shadow=1;comic=0;labelBackgroundColor=none;strokeWidth=1;fontFamily=Helvetica;fontSize=12;align=center;fillColor=#4D4D4D;strokeColor=#000000;fontColor=#FFFFFF;" parent="1" vertex="1">
          <mxGeometry x="465" y="490" width="60" height="60" as="geometry" />
        </mxCell>
        <mxCell id="1ea317790d2ca983-9" value="&lt;span style=&quot;font-size:10.5pt;mso-bidi-font-size:11.0pt;font-family:宋体;mso-bidi-font-family:&lt;br/&gt;&amp;quot;Times New Roman&amp;quot;;mso-bidi-theme-font:minor-bidi;mso-ansi-language:EN-US;&lt;br/&gt;mso-fareast-language:ZH-CN;mso-bidi-language:AR-SA&quot; lang=&quot;EN-US&quot;&gt;I&lt;/span&gt;&lt;span style=&quot;font-size:10.5pt;mso-bidi-font-size:11.0pt;font-family:宋体;mso-bidi-font-family:&lt;br/&gt;&amp;quot;Times New Roman&amp;quot;;mso-bidi-theme-font:minor-bidi;mso-ansi-language:EN-US;&lt;br/&gt;mso-fareast-language:ZH-CN;mso-bidi-language:AR-SA&quot;&gt;类&lt;/span&gt;" style="ellipse;whiteSpace=wrap;html=1;rounded=0;shadow=1;comic=0;labelBackgroundColor=none;strokeWidth=1;fontFamily=Helvetica;fontSize=12;align=center;fillColor=#4D4D4D;strokeColor=#000000;fontColor=#FFFFFF;" parent="1" vertex="1">
          <mxGeometry x="270" y="230" width="60" height="60" as="geometry" />
        </mxCell>
        <mxCell id="1ea317790d2ca983-20" value="" style="edgeStyle=none;rounded=1;html=1;labelBackgroundColor=none;startArrow=none;startFill=0;startSize=5;endArrow=classicThin;endFill=1;endSize=5;jettySize=auto;orthogonalLoop=1;strokeColor=#B3B3B3;strokeWidth=1;fontFamily=Verdana;fontSize=12;exitX=0.5;exitY=1;exitDx=0;exitDy=0;" parent="1" source="1ea317790d2ca983-9" target="1ea317790d2ca983-11" edge="1">
          <mxGeometry relative="1" as="geometry">
            <mxPoint x="247.5" y="370" as="sourcePoint" />
          </mxGeometry>
        </mxCell>
        <mxCell id="1ea317790d2ca983-18" value="" style="edgeStyle=none;rounded=1;html=1;labelBackgroundColor=none;startArrow=none;startFill=0;startSize=5;endArrow=classicThin;endFill=1;endSize=5;jettySize=auto;orthogonalLoop=1;strokeColor=#B3B3B3;strokeWidth=1;fontFamily=Verdana;fontSize=12" parent="1" source="1ea317790d2ca983-11" target="1ea317790d2ca983-8" edge="1">
          <mxGeometry relative="1" as="geometry" />
        </mxCell>
        <mxCell id="1ea317790d2ca983-11" value="&lt;span lang=&quot;EN-US&quot;&gt;I&lt;/span&gt;类" style="ellipse;whiteSpace=wrap;html=1;rounded=0;shadow=1;comic=0;labelBackgroundColor=none;strokeWidth=1;fontFamily=Helvetica;fontSize=12;align=center;fillColor=#4D4D4D;strokeColor=#000000;fontColor=#FFFFFF;" parent="1" vertex="1">
          <mxGeometry x="270" y="425" width="60" height="60" as="geometry" />
        </mxCell>
        <mxCell id="GIspUnlDH8avRdbgShiE-2" value="" style="edgeStyle=none;rounded=1;html=1;labelBackgroundColor=none;startArrow=none;startFill=0;startSize=5;endArrow=classicThin;endFill=1;endSize=5;jettySize=auto;orthogonalLoop=1;strokeColor=#B3B3B3;strokeWidth=1;fontFamily=Verdana;fontSize=12;exitX=1;exitY=0.5;exitDx=0;exitDy=0;entryX=0;entryY=0.5;entryDx=0;entryDy=0;" edge="1" parent="1" source="1ea317790d2ca983-7" target="1ea317790d2ca983-6">
          <mxGeometry relative="1" as="geometry">
            <mxPoint x="520" y="390" as="sourcePoint" />
            <mxPoint x="610" y="430" as="targetPoint" />
          </mxGeometry>
        </mxCell>
        <mxCell id="GIspUnlDH8avRdbgShiE-3" value="&lt;span style=&quot;font-size:10.5pt;mso-bidi-font-size:11.0pt;font-family:宋体;mso-bidi-font-family:&lt;br/&gt;&amp;quot;Times New Roman&amp;quot;;mso-bidi-theme-font:minor-bidi;mso-ansi-language:EN-US;&lt;br/&gt;mso-fareast-language:ZH-CN;mso-bidi-language:AR-SA&quot; lang=&quot;EN-US&quot;&gt;II&lt;/span&gt;&lt;span style=&quot;font-size:10.5pt;mso-bidi-font-size:11.0pt;font-family:宋体;mso-bidi-font-family:&lt;br/&gt;&amp;quot;Times New Roman&amp;quot;;mso-bidi-theme-font:minor-bidi;mso-ansi-language:EN-US;&lt;br/&gt;mso-fareast-language:ZH-CN;mso-bidi-language:AR-SA&quot;&gt;类&lt;/span&gt;" style="ellipse;whiteSpace=wrap;html=1;rounded=0;shadow=1;comic=0;labelBackgroundColor=none;strokeWidth=1;fontFamily=Verdana;fontSize=12;align=center;fillColor=#CCCCCC;strokeColor=#6c8ebf;" vertex="1" parent="1">
          <mxGeometry x="370" y="330" width="60" height="60" as="geometry" />
        </mxCell>
        <mxCell id="GIspUnlDH8avRdbgShiE-4" value="" style="edgeStyle=none;rounded=1;html=1;labelBackgroundColor=none;startArrow=none;startFill=0;startSize=5;endArrow=classicThin;endFill=1;endSize=5;jettySize=auto;orthogonalLoop=1;strokeColor=#B3B3B3;strokeWidth=1;fontFamily=Verdana;fontSize=12;exitX=0;exitY=0.5;exitDx=0;exitDy=0;" edge="1" parent="1" source="1ea317790d2ca983-7" target="GIspUnlDH8avRdbgShiE-3">
          <mxGeometry relative="1" as="geometry">
            <mxPoint x="523.8379480147862" y="362.7959108208015" as="sourcePoint" />
            <mxPoint x="645" y="435" as="targetPoint" />
          </mxGeometry>
        </mxCell>
        <mxCell id="GIspUnlDH8avRdbgShiE-5" value="" style="edgeStyle=none;rounded=1;html=1;labelBackgroundColor=none;startArrow=none;startFill=0;startSize=5;endArrow=classicThin;endFill=1;endSize=5;jettySize=auto;orthogonalLoop=1;strokeColor=#B3B3B3;strokeWidth=1;fontFamily=Verdana;fontSize=12;entryX=1;entryY=0;entryDx=0;entryDy=0;" edge="1" parent="1" target="1ea317790d2ca983-11">
          <mxGeometry relative="1" as="geometry">
            <mxPoint x="380" y="380" as="sourcePoint" />
            <mxPoint x="259.6944952823588" y="425.0005179804135" as="targetPoint" />
          </mxGeometry>
        </mxCell>
        <mxCell id="GIspUnlDH8avRdbgShiE-6" value="" style="edgeStyle=none;rounded=1;html=1;labelBackgroundColor=none;startArrow=none;startFill=0;startSize=5;endArrow=classicThin;endFill=1;endSize=5;jettySize=auto;orthogonalLoop=1;strokeColor=#B3B3B3;strokeWidth=1;fontFamily=Verdana;fontSize=12;entryX=0;entryY=0;entryDx=0;entryDy=0;exitX=1;exitY=1;exitDx=0;exitDy=0;" edge="1" parent="1" source="1ea317790d2ca983-6" target="1ea317790d2ca983-5">
          <mxGeometry relative="1" as="geometry">
            <mxPoint x="660" y="460" as="sourcePoint" />
            <mxPoint x="295" y="475" as="targetPoint" />
          </mxGeometry>
        </mxCell>
      </root>
    </mxGraphModel>
  </diagram>
</mxfile>
